<?xml version="1.0" encoding="UTF-8"?>
<!DOCTYPE svg PUBLIC "-//W3C//DTD SVG 1.1//EN" "http://www.w3.org/Graphics/SVG/1.1/DTD/svg11.dtd">
<!-- Creator: CorelDRAW 2019 (64-Bit) -->
<svg xmlns="http://www.w3.org/2000/svg" xml:space="preserve" width="17.7798mm" height="5.0798mm" version="1.1" style="shape-rendering:geometricPrecision; text-rendering:geometricPrecision; image-rendering:optimizeQuality; fill-rule:evenodd; clip-rule:evenodd"
viewBox="0 0 1777.98 507.98"
 xmlns:xlink="http://www.w3.org/1999/xlink">
 <defs>
  <style type="text/css">
   <![CDATA[
    .fil0 {fill:black}
    .fil4 {fill:white}
    .fil6 {fill:#FEFEFE;fill-rule:nonzero}
    .fil2 {fill:#280068;fill-rule:nonzero}
    .fil3 {fill:#390091;fill-rule:nonzero}
    .fil1 {fill:#A179DC;fill-rule:nonzero}
    .fil5 {fill:white;fill-rule:nonzero}
   ]]>
  </style>
 </defs>
 <g id="Capa_x0020_1">
  <metadata id="CorelCorpID_0Corel-Layer"/>
  <rect class="fil0" x="-0.01" y="-0.01" width="1778" height="508" rx="131" ry="79.77"/>
  <g id="_2488758926400">
   <g>
    <path class="fil1" d="M467.81 151.82c-0.01,-7.59 -1.63,-14.31 -4.91,-20.06 -3.23,-5.67 -8.06,-10.42 -14.54,-14.17 -53.5,-30.85 -107.05,-61.6 -160.53,-92.48 -14.42,-8.32 -28.4,-8.02 -42.71,0.43 -21.29,12.55 -127.91,73.63 -159.67,92.03 -13.09,7.58 -19.45,19.17 -19.46,34.24 -0.02,62.03 0,124.07 -0.02,186.1 0,7.43 1.56,14.01 4.7,19.68 3.23,5.84 8.13,10.72 14.76,14.55 31.77,18.4 138.39,79.48 159.68,92.04 14.32,8.45 28.3,8.75 42.72,0.42 53.48,-30.88 107.04,-61.63 160.54,-92.48 6.63,-3.83 11.53,-8.71 14.76,-14.54 3.14,-5.68 4.7,-12.26 4.7,-19.68 0,0 0,-124.04 -0.02,-186.08z"/>
    <path class="fil2" d="M267.52 244.25l-196.85 113.34c3.23,5.84 8.13,10.72 14.76,14.55 31.77,18.4 138.39,79.48 159.68,92.04 14.32,8.45 28.3,8.75 42.72,0.42 53.48,-30.88 107.04,-61.63 160.54,-92.48 6.63,-3.83 11.53,-8.71 14.76,-14.54l-195.61 -113.33z"/>
    <path class="fil3" d="M467.81 151.82c-0.01,-7.59 -1.63,-14.31 -4.91,-20.06l-195.38 112.49 195.61 113.33c3.14,-5.68 4.69,-12.26 4.7,-19.68 0,0 0,-124.04 -0.02,-186.08z"/>
    <path class="fil4" d="M383.41 201.89l0 21.18 21.19 0 0 -21.18 10.59 0 0 21.18 21.18 0 0 10.59 -21.18 0 0 21.19 21.18 0 0 10.59 -21.18 0 0 21.18 -10.59 0 0 -21.18 -21.19 0 0 21.18 -10.59 0 0 -21.18 -21.19 0 0 -10.59 21.19 0 0 -21.19 -21.19 0 0 -10.59 21.19 0 0 -21.18 10.59 0zm21.19 31.77l-21.19 0 0 21.19 21.19 0 0 -21.19z"/>
    <path class="fil5" d="M267.95 95.49c55.25,0 103.5,30.01 129.34,74.62l-0.25 -0.43 -65.02 37.43c-12.81,-21.69 -36.29,-36.32 -63.22,-36.63l-0.85 0c-41.08,0 -74.38,33.3 -74.38,74.38 0,13.43 3.58,26.02 9.81,36.9 12.82,22.38 36.92,37.48 64.57,37.48 27.82,0 52.05,-15.29 64.81,-37.91l-0.31 0.54 64.92 37.61c-25.56,44.23 -73.14,74.14 -127.76,74.74l-1.66 0.01c-55.43,0 -103.82,-30.2 -129.59,-75.04 -12.58,-21.89 -19.78,-47.27 -19.78,-74.33 0,-82.5 66.87,-149.37 149.37,-149.37z"/>
   </g>
  </g>
  <path class="fil6" d="M718.33 263.03l29.08 7.34c-6.07,23.83 -16.99,41.94 -32.76,54.44 -15.76,12.5 -35.05,18.77 -57.85,18.77 -23.57,0 -42.75,-4.79 -57.55,-14.43 -14.8,-9.6 -26.02,-23.52 -33.72,-41.74 -7.71,-18.26 -11.58,-37.8 -11.58,-58.72 0,-22.81 4.33,-42.7 13.06,-59.69 8.72,-16.99 21.12,-29.9 37.19,-38.72 16.07,-8.83 33.77,-13.22 53.06,-13.22 21.94,0 40.35,5.56 55.25,16.74 14.95,11.17 25.36,26.83 31.22,47.03l-28.46 6.74c-5.06,-15.92 -12.45,-27.55 -22.1,-34.8 -9.64,-7.29 -21.78,-10.91 -36.42,-10.91 -16.79,0 -30.87,4.03 -42.14,12.09 -11.28,8.06 -19.24,18.93 -23.78,32.5 -4.59,13.62 -6.89,27.65 -6.89,42.09 0,18.62 2.71,34.89 8.12,48.77 5.4,13.93 13.82,24.29 25.25,31.17 11.43,6.89 23.77,10.31 37.09,10.31 16.22,0 29.9,-4.7 41.12,-14.03 11.23,-9.39 18.83,-23.27 22.81,-41.73z"/>
  <path id="1" class="fil6" d="M858.83 269.5l27.24 -2.44c1.28,11.02 4.29,20.05 9.04,27.14 4.74,7.04 12.09,12.75 22.04,17.14 9.94,4.34 21.17,6.53 33.62,6.53 11.07,0 20.81,-1.63 29.28,-4.95 8.47,-3.31 14.74,-7.86 18.88,-13.62 4.13,-5.77 6.22,-12.04 6.22,-18.78 0,-6.83 -1.99,-12.8 -5.97,-17.95 -3.98,-5.11 -10.56,-9.39 -19.74,-12.91 -5.87,-2.25 -18.88,-5.82 -39.03,-10.66 -20.15,-4.85 -34.23,-9.39 -42.29,-13.68 -10.46,-5.51 -18.22,-12.34 -23.32,-20.46 -5.15,-8.11 -7.7,-17.24 -7.7,-27.29 0,-11.12 3.16,-21.48 9.43,-31.07 6.28,-9.64 15.41,-16.94 27.5,-21.94 12.04,-5 25.46,-7.5 40.21,-7.5 16.22,0 30.56,2.6 42.95,7.86 12.4,5.2 21.94,12.91 28.62,23.11 6.69,10.15 10.26,21.68 10.77,34.54l-27.86 2.14c-1.48,-13.82 -6.53,-24.28 -15.15,-31.32 -8.62,-7.09 -21.38,-10.61 -38.21,-10.61 -17.55,0 -30.36,3.21 -38.37,9.64 -8.01,6.43 -12.04,14.18 -12.04,23.26 0,7.86 2.86,14.34 8.52,19.44 5.61,5.05 20.15,10.31 43.72,15.61 23.58,5.36 39.75,10 48.52,13.98 12.71,5.87 22.15,13.27 28.22,22.3 6.07,8.97 9.08,19.33 9.08,31.07 0,11.68 -3.32,22.6 -10,32.9 -6.69,10.31 -16.23,18.32 -28.73,24.03 -12.49,5.72 -26.52,8.57 -42.19,8.57 -19.79,0 -36.37,-2.9 -49.74,-8.67 -13.42,-5.76 -23.88,-14.44 -31.48,-26.07 -7.65,-11.58 -11.63,-24.69 -12.04,-39.34z"/>
  <path id="2" class="fil6" d="M1069.13 339.91l0 -219.17 26.94 0 0 78.87c12.5,-14.64 28.27,-21.94 47.35,-21.94 11.68,0 21.83,2.3 30.5,6.94 8.63,4.64 14.8,11.02 18.52,19.18 3.73,8.17 5.57,20.05 5.57,35.56l0 100.56 -26.94 0 0 -100.46c0,-13.41 -2.91,-23.21 -8.68,-29.33 -5.81,-6.12 -13.97,-9.18 -24.59,-9.18 -7.9,0 -15.35,2.04 -22.34,6.17 -6.99,4.13 -11.94,9.74 -14.95,16.84 -2.96,7.04 -4.44,16.78 -4.44,29.23l0 86.73 -26.94 0z"/>
  <path id="3" class="fil6" d="M1343.15 320.01c-10,8.52 -19.64,14.49 -28.87,18.01 -9.24,3.52 -19.13,5.26 -29.75,5.26 -17.44,0 -30.86,-4.24 -40.25,-12.76 -9.39,-8.47 -14.08,-19.33 -14.08,-32.55 0,-7.75 1.79,-14.84 5.31,-21.27 3.57,-6.43 8.21,-11.53 13.92,-15.41 5.77,-3.88 12.2,-6.84 19.39,-8.83 5.31,-1.37 13.32,-2.7 23.98,-4.03 21.73,-2.55 37.8,-5.66 48.06,-9.23 0.1,-3.67 0.15,-6.02 0.15,-6.99 0,-10.92 -2.55,-18.62 -7.65,-23.11 -6.89,-6.07 -17.14,-9.08 -30.71,-9.08 -12.71,0 -22.09,2.24 -28.12,6.68 -6.07,4.44 -10.5,12.3 -13.41,23.62l-26.33 -3.67c2.4,-11.28 6.33,-20.41 11.84,-27.35 5.51,-6.94 13.47,-12.24 23.87,-16.02 10.36,-3.72 22.45,-5.61 36.13,-5.61 13.57,0 24.64,1.58 33.16,4.8 8.47,3.21 14.74,7.19 18.72,12.04 3.98,4.84 6.79,10.97 8.42,18.36 0.87,4.6 1.33,12.86 1.33,24.75l0 35.71c0,24.95 0.56,40.71 1.68,47.4 1.07,6.68 3.32,13.06 6.58,19.18l-28.16 0c-2.71,-5.66 -4.44,-12.3 -5.21,-19.9zm-2.14 -59.69c-9.79,3.98 -24.49,7.35 -44.08,10.1 -11.12,1.58 -18.98,3.37 -23.57,5.36 -4.59,1.99 -8.11,4.9 -10.61,8.67 -2.5,3.83 -3.78,8.06 -3.78,12.76 0,7.09 2.71,13.06 8.17,17.8 5.46,4.75 13.42,7.15 23.87,7.15 10.36,0 19.59,-2.25 27.71,-6.79 8.06,-4.49 14.03,-10.66 17.8,-18.47 2.91,-6.07 4.34,-15 4.34,-26.78l0.15 -9.8z"/>
  <path id="4" class="fil6" d="M1409.33 339.91l0 -158.87 24.18 0 0 24.33c6.17,-11.27 11.89,-18.72 17.14,-22.29 5.26,-3.62 11.02,-5.41 17.3,-5.41 9.08,0 18.31,2.86 27.7,8.52l-9.59 24.85c-6.53,-3.68 -13.06,-5.51 -19.59,-5.51 -5.87,0 -11.12,1.78 -15.77,5.3 -4.64,3.52 -7.96,8.42 -9.95,14.7 -3.01,9.54 -4.49,20 -4.49,31.37l0 83.01 -26.93 0z"/>
  <path id="5" class="fil6" d="M1511.56 400.83l0 -219.79 24.49 0 0 20.87c5.77,-8.07 12.3,-14.14 19.59,-18.17 7.25,-4.03 16.07,-6.07 26.43,-6.07 13.57,0 25.51,3.47 35.87,10.46 10.35,6.94 18.16,16.79 23.46,29.44 5.26,12.7 7.91,26.58 7.91,41.73 0,16.17 -2.91,30.77 -8.72,43.77 -5.82,12.96 -14.29,22.91 -25.41,29.85 -11.07,6.89 -22.75,10.36 -35,10.36 -8.98,0 -17.04,-1.89 -24.13,-5.67 -7.14,-3.77 -12.96,-8.52 -17.55,-14.28l0 77.5 -26.94 0zm24.49 -139.39c0,20.36 4.13,35.41 12.35,45.16 8.26,9.74 18.26,14.64 30,14.64 11.94,0 22.14,-5.05 30.61,-15.16 8.52,-10.1 12.75,-25.71 12.75,-46.88 0,-20.2 -4.13,-35.31 -12.45,-45.36 -8.31,-10.05 -18.21,-15.05 -29.74,-15.05 -11.43,0 -21.53,5.36 -30.3,16.02 -8.83,10.72 -13.22,26.23 -13.22,46.63z"/>
 </g>
</svg>
